<svg xmlns="http://www.w3.org/2000/svg" xmlns:xlink="http://www.w3.org/1999/xlink" width="24" height="24" fill-rule="evenodd" stroke-linejoin="round" stroke-miterlimit="2" clip-rule="evenodd" id="incoming-call">
  <defs>
    <linearGradient id="d">
      <stop offset="0" stop-color="#64dd17"></stop>
      <stop offset="1" stop-color="#b2ff59"></stop>
    </linearGradient>
    <linearGradient id="b">
      <stop offset="0" stop-color="#b3e5fc"></stop>
      <stop offset="1" stop-color="#e3f2fd"></stop>
    </linearGradient>
    <linearGradient id="c">
      <stop offset="0" stop-color="#42a5f5"></stop>
      <stop offset="1" stop-color="#bbdefb"></stop>
    </linearGradient>
    <linearGradient id="a">
      <stop offset="0" stop-color="#2979ff"></stop>
      <stop offset="1" stop-color="#81d4fa"></stop>
    </linearGradient>
    <linearGradient xlink:href="#a" id="h" x1="4.5" x2="8.046" y1="9.637" y2="4" gradientUnits="userSpaceOnUse"></linearGradient>
    <linearGradient xlink:href="#a" id="i" x1="14.864" x2="19.092" y1="20.001" y2="14.728" gradientUnits="userSpaceOnUse"></linearGradient>
    <linearGradient xlink:href="#b" id="e" x1="7.091" x2="8.091" y1="17.001" y2="15.91" gradientUnits="userSpaceOnUse"></linearGradient>
    <linearGradient xlink:href="#c" id="f" x1="8.773" x2="13.233" y1="19.675" y2="19.629" gradientUnits="userSpaceOnUse"></linearGradient>
    <linearGradient xlink:href="#c" id="g" x1="3.682" x2="4.318" y1="13.501" y2="10.819" gradientUnits="userSpaceOnUse"></linearGradient>
    <linearGradient xlink:href="#d" id="j" x1="16.728" x2="18.001" y1="5.455" y2="6.864" gradientUnits="userSpaceOnUse"></linearGradient>
    <linearGradient xlink:href="#d" id="k" x1="13.319" x2="15" y1="9.046" y2="9" gradientUnits="userSpaceOnUse"></linearGradient>
  </defs>
  <path fill="url(#e)" d="M 19.666,18.373 C 18.519,18.779 17.285,19 16,19 9.929,19 5,14.071 5,8 5,6.715 5.221,5.48 5.627,4.334 5.811,3.813 5.538,3.241 5.018,3.057 4.497,2.873 3.925,3.146 3.741,3.666 3.261,5.022 3,6.481 3,8 c 0,7.175 5.825,13 13,13 1.519,0 2.978,-0.261 4.334,-0.741 0.52,-0.184 0.793,-0.756 0.609,-1.277 -0.184,-0.52 -0.756,-0.793 -1.277,-0.609 z"></path>
  <path fill="url(#f)" d="m 11.416,18.001 -0.382,1.427 c -0.053,0.199 -0.043,0.408 0.026,0.599 1.338,0.551 2.788,0.885 4.306,0.958 1.292,-0.062 2.534,-0.313 3.7,-0.726 0.4,-0.142 0.667,-0.519 0.667,-0.943 v -0.964 c -0.022,0.007 -0.045,0.014 -0.067,0.021 C 18.519,18.779 17.285,19 16,19 14.364,19 12.812,18.642 11.416,18.001 Z"></path>
  <path fill="url(#g)" d="m 5.684,4 h -1 C 4.26,4 3.883,4.267 3.741,4.666 3.314,5.873 3.06,7.161 3.009,8.5 c 0.059,1.545 0.388,3.021 0.941,4.383 0.212,0.099 0.453,0.121 0.682,0.06 L 5.996,12.577 C 5.357,11.184 5,9.633 5,8 5,6.715 5.221,5.48 5.627,4.334 5.666,4.223 5.684,4.111 5.684,4 Z"></path>
  <path fill="url(#h)" d="m 3.404,11.224 c 0.066,0.259 0.233,0.481 0.464,0.616 0.23,0.135 0.505,0.172 0.764,0.103 L 8.496,10.907 C 9.023,10.766 9.34,10.228 9.208,9.699 9.072,9.155 9,8.586 9,8 9,6.726 9.341,5.531 9.937,4.501 10.116,4.192 10.117,3.81 9.938,3.501 9.76,3.191 9.429,3 9.072,3 H 4.684 C 4.26,3 3.883,3.267 3.741,3.666 3.261,5.022 3,6.481 3,8 c 0,1.113 0.14,2.193 0.404,3.224 z"></path>
  <path fill="url(#i)" d="m 14.515,14.842 c -0.521,-0.113 -1.039,0.203 -1.177,0.719 l -1.037,3.867 c -0.07,0.262 -0.031,0.541 0.108,0.773 0.14,0.232 0.367,0.398 0.631,0.46 C 13.991,20.883 14.982,21 16,21 17.519,21 18.978,20.739 20.334,20.259 20.733,20.117 21,19.74 21,19.316 v -4.388 c 0,-0.357 -0.191,-0.687 -0.501,-0.866 -0.309,-0.179 -0.691,-0.178 -1,0.001 C 18.469,14.659 17.274,15 16,15 15.491,15 14.994,14.946 14.515,14.842 Z"></path>
  <path fill="url(#j)" d="m 15.706862,9.7038354 4.9995,-4.9995 c 0.389859,-0.3898595 0.389859,-1.0237775 0,-1.4136371 -0.38986,-0.3898596 -1.023778,-0.3898596 -1.413637,0 l -4.9995,4.9995 c -0.390917,0.3909161 -0.390917,1.0248341 -0.0011,1.4146936 0.38986,0.3898601 1.023778,0.3898601 1.414694,-0.00106 z"></path>
  <path fill="url(#k)" d="M 18,9 H 15 C 15,9 15,6 15,6 15,5.448 14.552,5 14,5 13.448,5 13,5.448 13,6 v 4 c 0,0.552 0.448,1 1,1 h 4 c 0.552,0 1,-0.448 1,-1 0,-0.552 -0.448,-1 -1,-1 z"></path>
</svg>
