<svg xmlns="http://www.w3.org/2000/svg" xml:space="preserve" viewBox="0 0 512 512" id="fast-forward">
  <path d="M501.089 142.428v227.143a61.26 61.26 0 0 1-17.95 43.314c-25.446 25.436-44.849 44.814-70.265 70.249a61.25 61.25 0 0 1-43.319 17.955H142.421a61.25 61.25 0 0 1-43.295-17.932c-25.456-25.446-44.863-44.828-70.288-70.272a61.26 61.26 0 0 1-17.927-43.291V142.405a61.26 61.26 0 0 1 17.927-43.291C54.262 73.67 73.669 54.288 99.125 28.842A61.25 61.25 0 0 1 142.42 10.91h227.135a61.25 61.25 0 0 1 43.319 17.955c25.416 25.435 44.819 44.813 70.265 70.249a61.26 61.26 0 0 1 17.95 43.314" style="fill:#429dda"></path>
  <path d="M422.417 255.969c0 91.916-74.501 166.478-166.418 166.478S89.582 347.886 89.582 255.969 164.083 89.551 256 89.551s166.417 74.501 166.417 166.418" style="fill:#fff"></path>
  <path d="m213.462 331.666 81.455-66.201c5.981-4.861 5.982-14.042.003-18.905l-81.426-66.225c-7.885-6.413-19.628-.76-19.63 9.449l-.029 132.427c-.002 10.208 11.74 15.865 19.627 9.455" style="fill:#429dda"></path>
  <path d="m274.976 331.666 81.455-66.201c5.981-4.861 5.982-14.042.003-18.905l-81.426-66.225c-7.885-6.413-19.628-.76-19.63 9.449l-.029 132.427c-.003 10.208 11.739 15.866 19.627 9.455" style="fill:#429dda"></path>
  <path d="M416.337 25.401C404.025 13.08 386.974 6.009 369.555 6.009H142.421c-17.664 0-34.269 6.879-46.763 19.368L25.372 95.648c-12.489 12.499-19.363 29.104-19.363 46.758v227.186c0 17.654 6.874 34.26 19.363 46.758l70.286 70.272c12.494 12.489 29.1 19.368 46.763 19.368h227.134c17.42 0 34.47-7.07 46.782-19.392l70.267-70.248c12.321-12.317 19.387-29.368 19.387-46.782V142.426c0-17.415-7.065-34.461-19.387-46.778zm79.85 344.168c0 14.835-6.017 29.358-16.515 39.851l-70.267 70.248c-10.493 10.498-25.016 16.52-39.851 16.52H142.421c-15.045 0-29.191-5.859-39.832-16.496L32.303 409.42c-10.479-10.488-16.491-25.007-16.491-39.827V142.407c0-15.04 5.859-29.186 16.491-39.827l70.286-70.272c10.641-10.636 24.787-16.496 39.832-16.496h227.134c14.835 0 29.358 6.022 39.851 16.52l70.267 70.248c10.498 10.493 16.515 25.016 16.515 39.846z" style="fill:#40437e"></path>
  <path d="M256 84.648c-94.465 0-171.318 76.854-171.318 171.323 0 94.498 76.854 171.376 171.318 171.376s171.318-76.878 171.318-171.376c0-94.469-76.853-171.323-171.318-171.323m0 332.895c-89.06 0-161.515-72.483-161.515-161.572 0-89.06 72.455-161.52 161.515-161.52s161.515 72.459 161.515 161.52c0 89.089-72.455 161.572-161.515 161.572" style="fill:#40437e"></path>
  <path d="M278.101 176.533c-5.103-4.16-11.967-4.993-17.917-2.159-5.988 2.848-9.708 8.75-9.708 15.409l-.003 14.306-33.883-27.561c-5.117-4.15-11.972-4.993-17.922-2.154-5.984 2.848-9.703 8.75-9.703 15.409l-.029 132.425c-.005 6.654 3.715 12.561 9.698 15.414 5.91 2.816 12.793 2.021 17.922-2.149l33.894-27.548-.003 14.284c-.005 6.654 3.715 12.561 9.698 15.414 5.91 2.816 12.793 2.021 17.922-2.149l81.449-66.203c4.002-3.25 6.3-8.08 6.304-13.25a17.01 17.01 0 0 0-6.295-13.26zm-67.73 151.328c-2.178 1.776-4.993 2.111-7.52.91-2.575-1.23-4.112-3.681-4.112-6.563l.029-132.425c0-2.882 1.537-5.333 4.112-6.558 2.502-1.185 5.315-.884 7.525.91l40.065 32.587-.017 78.563zm142.966-66.203-81.454 66.203c-2.178 1.776-4.993 2.111-7.52.91-2.575-1.23-4.112-3.681-4.112-6.563l.029-132.425c0-2.882 1.537-5.333 4.117-6.558 2.516-1.192 5.332-.873 7.52.91l81.425 66.227a7.26 7.26 0 0 1 2.676 5.653 7.24 7.24 0 0 1-2.681 5.643" style="fill:#40437e"></path>
</svg>
