<svg xmlns="http://www.w3.org/2000/svg" xml:space="preserve" viewBox="0 0 24 24" id="group">
  <circle cx="4.5" cy="7.5" r="2.5" fill="#0377BE"></circle>
  <path fill="#0377BE" d="M7.92 11.532C7.12 11.06 5.879 10.5 4.5 10.5s-2.621.561-3.42 1.032C.414 11.925 0 12.688 0 13.523V15h9v-1.477c0-.835-.414-1.598-1.08-1.991z"></path>
  <path fill="#010101" d="M0 14.75h9V15H0z" opacity=".1"></path>
  <circle cx="19.5" cy="7.5" r="2.5" fill="#0377BE"></circle>
  <path fill="#0377BE" d="M22.92 11.532c-.799-.471-2.041-1.032-3.42-1.032s-2.621.561-3.42 1.032c-.666.393-1.08 1.156-1.08 1.991V15h9v-1.477c0-.835-.414-1.598-1.08-1.991z"></path>
  <path fill="#010101" d="M15 14.75h9V15h-9z" opacity=".1"></path>
  <path fill="#FFF" d="M19.5 5.25c1.062 0 1.979.613 2.392 1.522C21.586 5.738 20.632 5 19.5 5s-2.088.744-2.394 1.779A2.62 2.62 0 0 1 19.5 5.25z" opacity=".2"></path>
  <path fill="#010101" d="M19.5 9.75a2.62 2.62 0 0 1-2.394-1.53C17.412 9.256 18.367 10 19.5 10s2.087-.742 2.393-1.776A2.617 2.617 0 0 1 19.5 9.75z" opacity=".1"></path>
  <path fill="#FFF" d="M22.92 11.532c-.799-.471-2.041-1.032-3.42-1.032s-2.621.561-3.42 1.032c-.666.393-1.08 1.156-1.08 1.991v.25c0-.835.414-1.598 1.08-1.991.799-.471 2.041-1.032 3.42-1.032s2.621.561 3.42 1.032c.666.393 1.08 1.156 1.08 1.991v-.25c0-.835-.414-1.598-1.08-1.991z" opacity=".2"></path>
  <circle cx="12" cy="8.5" r="3.5" fill="#2D98D4"></circle>
  <path fill="#2D98D4" d="M17.375 14.431C16.116 13.778 14.162 13 12 13s-4.116.778-5.375 1.431A3.001 3.001 0 0 0 5 17.105V19h14v-1.895c0-1.13-.623-2.154-1.625-2.674z"></path>
  <path fill="#FFF" d="M4.5 5.25c1.062 0 1.979.613 2.392 1.522C6.586 5.738 5.632 5 4.5 5s-2.088.744-2.394 1.779A2.62 2.62 0 0 1 4.5 5.25z" opacity=".2"></path>
  <path fill="#010101" d="M4.5 9.75a2.62 2.62 0 0 1-2.394-1.53C2.412 9.256 3.367 10 4.5 10s2.087-.742 2.393-1.776A2.617 2.617 0 0 1 4.5 9.75z" opacity=".1"></path>
  <path fill="#FFF" d="M7.92 11.532C7.12 11.06 5.879 10.5 4.5 10.5s-2.621.561-3.42 1.032C.414 11.925 0 12.688 0 13.523v.25c0-.835.414-1.598 1.08-1.991.799-.471 2.041-1.032 3.42-1.032s2.621.561 3.42 1.032c.666.393 1.08 1.156 1.08 1.991v-.25c0-.835-.414-1.598-1.08-1.991zM12 5.25c1.475 0 2.742.889 3.308 2.157C14.846 6.014 13.546 5 12 5S9.154 6.014 8.692 7.407A3.626 3.626 0 0 1 12 5.25z" opacity=".2"></path>
  <path fill="#010101" d="M12 11.75a3.626 3.626 0 0 1-3.308-2.157C9.154 10.986 10.454 12 12 12s2.846-1.014 3.308-2.407A3.626 3.626 0 0 1 12 11.75z" opacity=".1"></path>
  <path fill="#FFF" d="M17.375 14.431C16.116 13.778 14.162 13 12 13s-4.116.778-5.375 1.431A3.001 3.001 0 0 0 5 17.105v.25c0-1.13.623-2.154 1.625-2.674C7.884 14.028 9.838 13.25 12 13.25s4.116.778 5.375 1.431A3.001 3.001 0 0 1 19 17.355v-.25c0-1.13-.623-2.154-1.625-2.674z" opacity=".2"></path>
  <path fill="#010101" d="M5 18.75h14V19H5z" opacity=".1"></path>
  <linearGradient id="a" x1="1.944" x2="23.1" y1="7.065" y2="16.93" gradientUnits="userSpaceOnUse">
    <stop offset="0" stop-color="#FFF" stop-opacity=".2"></stop>
    <stop offset="1" stop-color="#FFF" stop-opacity="0"></stop>
  </linearGradient>
  <path fill="url(#a)" d="M4.5 10C5.879 10 7 8.878 7 7.5S5.879 5 4.5 5 2 6.122 2 7.5 3.121 10 4.5 10zm15 0c1.379 0 2.5-1.122 2.5-2.5S20.879 5 19.5 5 17 6.122 17 7.5s1.121 2.5 2.5 2.5zm4.5 3.523c0-.835-.414-1.598-1.08-1.991-.799-.471-2.041-1.032-3.42-1.032s-2.621.561-3.42 1.032c-.65.383-1.054 1.122-1.073 1.934C14.096 13.192 13.074 13 12 13s-2.096.192-3.007.466c-.02-.812-.423-1.55-1.073-1.934-.8-.472-2.041-1.032-3.42-1.032s-2.621.561-3.42 1.032C.414 11.925 0 12.688 0 13.523V15h5.864A2.997 2.997 0 0 0 5 17.105V19h14v-1.895c0-.804-.32-1.552-.864-2.105H24v-1.477zM12 12c1.93 0 3.5-1.57 3.5-3.5S13.93 5 12 5 8.5 6.57 8.5 8.5 10.07 12 12 12z"></path>
</svg>
