<svg width="193" height="46" viewBox="0 0 193 46" fill="none" xmlns="http://www.w3.org/2000/svg">
<rect x="5.56689" width="40" height="40" rx="7" transform="rotate(8 5.56689 0)" fill="white" fill-opacity="0.2"/>
<rect x="4.58868" y="4.58881" width="36" height="36" rx="7" fill="white" fill-opacity="0.3"/>
<path d="M37.5271 23.0796L37.5262 23.0796C37.4604 23.08 37.3952 23.0674 37.3343 23.0425C37.2737 23.0178 37.2186 22.9814 37.172 22.9354C37.1718 22.9351 37.1715 22.9349 37.1712 22.9346L22.8828 8.63617L22.5291 8.28224L22.1755 8.63617L7.90153 22.9201C7.80777 22.9953 7.68986 23.0343 7.56939 23.0297C7.44355 23.0248 7.32418 22.9727 7.23513 22.8836C7.14608 22.7946 7.09392 22.6752 7.08906 22.5494C7.0844 22.4289 7.12345 22.3109 7.1987 22.2171L22.1816 7.2342C22.1818 7.23405 22.1819 7.2339 22.1821 7.23374C22.2757 7.14091 22.4023 7.08881 22.5341 7.08881C22.666 7.08881 22.7924 7.14087 22.8861 7.23364C22.8863 7.23383 22.8865 7.23401 22.8866 7.2342L37.8821 22.2296C37.8826 22.2301 37.883 22.2306 37.8835 22.2311C37.9515 22.301 37.9976 22.3894 38.016 22.4852C38.0346 22.5818 38.0243 22.6816 37.9864 22.7723C37.9485 22.863 37.8847 22.9405 37.803 22.9952C37.7213 23.0498 37.6254 23.0792 37.5271 23.0796Z" fill="white" fill-opacity="0.1" stroke="white"/>
<path d="M19.5291 28.0796H19.0291V28.5796V38.0796H12.5291C12.1313 38.0796 11.7498 37.9215 11.4685 37.6402C11.1871 37.3589 11.0291 36.9774 11.0291 36.5796V24.6162L22.5301 13.0768L34.0291 24.547V36.5796C34.0291 36.9774 33.8711 37.3589 33.5898 37.6402C33.3085 37.9215 32.9269 38.0796 32.5291 38.0796H26.0291V28.5796V28.0796H25.5291H19.5291Z" fill="white" stroke="white"/>
<path d="M46.4736 20.5888V10.407H50.4907C51.2629 10.407 51.9208 10.5545 52.4644 10.8495C53.008 11.1411 53.4223 11.5471 53.7073 12.0675C53.9956 12.5845 54.1398 13.1811 54.1398 13.8573C54.1398 14.5334 53.994 15.13 53.7023 15.647C53.4107 16.1641 52.9881 16.5668 52.4346 16.8551C51.8844 17.1435 51.2182 17.2877 50.436 17.2877H47.8756V15.5625H50.088C50.5023 15.5625 50.8437 15.4913 51.1121 15.3487C51.3839 15.2029 51.5861 15.0024 51.7187 14.7472C51.8545 14.4887 51.9225 14.192 51.9225 13.8573C51.9225 13.5192 51.8545 13.2242 51.7187 12.9723C51.5861 12.7171 51.3839 12.5199 51.1121 12.3807C50.8403 12.2382 50.4956 12.1669 50.078 12.1669H48.6263V20.5888H46.4736ZM56.8983 20.5888V12.9524H58.9516V14.2848H59.0311C59.1703 13.8109 59.404 13.4529 59.7321 13.211C60.0602 12.9657 60.4381 12.8431 60.8656 12.8431C60.9717 12.8431 61.086 12.8497 61.2087 12.863C61.3313 12.8762 61.439 12.8944 61.5318 12.9176V14.7969C61.4324 14.7671 61.2949 14.7406 61.1192 14.7174C60.9435 14.6942 60.7828 14.6826 60.6369 14.6826C60.3254 14.6826 60.047 14.7505 59.8017 14.8864C59.5598 15.019 59.3675 15.2046 59.225 15.4432C59.0858 15.6818 59.0162 15.9569 59.0162 16.2685V20.5888H56.8983ZM67.1216 20.738C66.3494 20.738 65.6815 20.5739 65.1181 20.2458C64.558 19.9143 64.1254 19.4536 63.8205 18.8637C63.5156 18.2704 63.3631 17.5827 63.3631 16.8005C63.3631 16.0116 63.5156 15.3222 63.8205 14.7323C64.1254 14.139 64.558 13.6783 65.1181 13.3502C65.6815 13.0187 66.3494 12.853 67.1216 12.853C67.8939 12.853 68.5601 13.0187 69.1202 13.3502C69.6837 13.6783 70.1178 14.139 70.4228 14.7323C70.7277 15.3222 70.8802 16.0116 70.8802 16.8005C70.8802 17.5827 70.7277 18.2704 70.4228 18.8637C70.1178 19.4536 69.6837 19.9143 69.1202 20.2458C68.5601 20.5739 67.8939 20.738 67.1216 20.738ZM67.1316 19.0973C67.4829 19.0973 67.7762 18.9979 68.0116 18.799C68.2469 18.5969 68.4242 18.3218 68.5435 17.9737C68.6661 17.6257 68.7275 17.2297 68.7275 16.7855C68.7275 16.3414 68.6661 15.9453 68.5435 15.5973C68.4242 15.2493 68.2469 14.9742 68.0116 14.772C67.7762 14.5699 67.4829 14.4688 67.1316 14.4688C66.7769 14.4688 66.4786 14.5699 66.2367 14.772C65.9981 14.9742 65.8174 15.2493 65.6948 15.5973C65.5755 15.9453 65.5158 16.3414 65.5158 16.7855C65.5158 17.2297 65.5755 17.6257 65.6948 17.9737C65.8174 18.3218 65.9981 18.5969 66.2367 18.799C66.4786 18.9979 66.7769 19.0973 67.1316 19.0973ZM73.6573 23.4524V12.9524H75.7454V14.2351H75.8398C75.9326 14.0296 76.0669 13.8208 76.2425 13.6087C76.4215 13.3933 76.6535 13.2143 76.9385 13.0718C77.2269 12.9259 77.5848 12.853 78.0124 12.853C78.5692 12.853 79.083 12.9988 79.5536 13.2905C80.0242 13.5789 80.4004 14.0147 80.6822 14.598C80.9639 15.1781 81.1047 15.9056 81.1047 16.7806C81.1047 17.6324 80.9672 18.3516 80.6921 18.9382C80.4203 19.5216 80.0491 19.964 79.5785 20.2657C79.1111 20.5639 78.5875 20.7131 78.0074 20.7131C77.5964 20.7131 77.2468 20.6452 76.9584 20.5093C76.6734 20.3734 76.4397 20.2027 76.2574 19.9972C76.0751 19.7884 75.9359 19.5779 75.8398 19.3658H75.7752V23.4524H73.6573ZM75.7304 16.7706C75.7304 17.2247 75.7934 17.6208 75.9194 17.9588C76.0453 18.2969 76.2276 18.5604 76.4662 18.7493C76.7049 18.9349 76.9949 19.0277 77.3363 19.0277C77.681 19.0277 77.9726 18.9333 78.2113 18.7443C78.4499 18.5521 78.6305 18.287 78.7532 17.9489C78.8791 17.6075 78.9421 17.2148 78.9421 16.7706C78.9421 16.3298 78.8808 15.942 78.7581 15.6073C78.6355 15.2725 78.4549 15.0107 78.2162 14.8218C77.9776 14.6328 77.6843 14.5384 77.3363 14.5384C76.9916 14.5384 76.6999 14.6295 76.4613 14.8118C76.2259 14.9941 76.0453 15.2526 75.9194 15.5874C75.7934 15.9221 75.7304 16.3166 75.7304 16.7706ZM87.3968 20.738C86.6113 20.738 85.9351 20.5789 85.3684 20.2607C84.8049 19.9392 84.3707 19.4851 84.0658 18.8985C83.7609 18.3085 83.6084 17.6108 83.6084 16.8054C83.6084 16.0199 83.7609 15.3305 84.0658 14.7372C84.3707 14.144 84.8 13.6816 85.3535 13.3502C85.9103 13.0187 86.5632 12.853 87.3123 12.853C87.8161 12.853 88.285 12.9342 88.7192 13.0966C89.1567 13.2557 89.5379 13.496 89.8627 13.8175C90.1908 14.139 90.446 14.5434 90.6283 15.0306C90.8106 15.5145 90.9018 16.0812 90.9018 16.7309V17.3125H84.4536V16H88.9081C88.9081 15.6951 88.8419 15.425 88.7093 15.1897C88.5767 14.9543 88.3928 14.7704 88.1574 14.6378C87.9254 14.5019 87.6553 14.434 87.3471 14.434C87.0256 14.434 86.7405 14.5086 86.4919 14.6577C86.2467 14.8035 86.0544 15.0007 85.9152 15.2493C85.776 15.4946 85.7048 15.768 85.7015 16.0696V17.3175C85.7015 17.6953 85.7711 18.0218 85.9103 18.2969C86.0528 18.572 86.2533 18.7841 86.5118 18.9333C86.7704 19.0824 87.0769 19.157 87.4316 19.157C87.6669 19.157 87.8823 19.1238 88.0779 19.0576C88.2734 18.9913 88.4408 18.8918 88.58 18.7593C88.7192 18.6267 88.8253 18.4643 88.8982 18.272L90.857 18.4013C90.7576 18.872 90.5537 19.2829 90.2455 19.6343C89.9406 19.9823 89.5462 20.2541 89.0623 20.4496C88.5817 20.6418 88.0265 20.738 87.3968 20.738ZM93.6839 20.5888V12.9524H95.7371V14.2848H95.8167C95.9559 13.8109 96.1895 13.4529 96.5177 13.211C96.8458 12.9657 97.2236 12.8431 97.6512 12.8431C97.7572 12.8431 97.8716 12.8497 97.9942 12.863C98.1169 12.8762 98.2246 12.8944 98.3174 12.9176V14.7969C98.2179 14.7671 98.0804 14.7406 97.9047 14.7174C97.7291 14.6942 97.5683 14.6826 97.4225 14.6826C97.1109 14.6826 96.8325 14.7505 96.5873 14.8864C96.3453 15.019 96.1531 15.2046 96.0106 15.4432C95.8714 15.6818 95.8018 15.9569 95.8018 16.2685V20.5888H93.6839ZM105.257 12.9524V14.5434H100.658V12.9524H105.257ZM101.702 11.1229H103.82V18.2422C103.82 18.4378 103.85 18.5902 103.91 18.6996C103.969 18.8057 104.052 18.8802 104.158 18.9233C104.268 18.9664 104.394 18.988 104.536 18.988C104.636 18.988 104.735 18.9797 104.834 18.9631C104.934 18.9432 105.01 18.9283 105.063 18.9184L105.396 20.4943C105.29 20.5275 105.141 20.5656 104.949 20.6087C104.757 20.6551 104.523 20.6833 104.248 20.6932C103.737 20.7131 103.29 20.6452 102.905 20.4894C102.524 20.3336 102.228 20.0916 102.015 19.7635C101.803 19.4354 101.699 19.0211 101.702 18.5206V11.1229ZM109.344 23.4524C109.076 23.4524 108.824 23.4309 108.588 23.3878C108.356 23.348 108.164 23.2967 108.012 23.2337L108.489 21.6527C108.738 21.729 108.961 21.7704 109.16 21.777C109.362 21.7836 109.536 21.7372 109.682 21.6378C109.831 21.5384 109.952 21.3693 110.045 21.1307L110.169 20.8076L107.43 12.9524H109.657L111.238 18.5604H111.318L112.914 12.9524H115.156L112.188 21.4141C112.045 21.8251 111.851 22.183 111.606 22.488C111.364 22.7962 111.058 23.0332 110.686 23.1989C110.315 23.3679 109.868 23.4524 109.344 23.4524Z" fill="white"/>
<path d="M125.177 21L122.263 10.8182H124.615L126.3 17.8928H126.385L128.244 10.8182H130.258L132.112 17.9077H132.202L133.887 10.8182H136.239L133.325 21H131.227L129.288 14.343H129.209L127.275 21H125.177ZM140.808 21.1442C140.321 21.1442 139.887 21.0597 139.506 20.8906C139.125 20.7183 138.823 20.4647 138.601 20.13C138.382 19.7919 138.273 19.371 138.273 18.8672C138.273 18.4429 138.351 18.0866 138.506 17.7983C138.662 17.5099 138.874 17.2779 139.143 17.1023C139.411 16.9266 139.716 16.794 140.058 16.7045C140.402 16.6151 140.764 16.5521 141.141 16.5156C141.586 16.4692 141.943 16.4261 142.215 16.3864C142.487 16.3433 142.684 16.2803 142.807 16.1974C142.929 16.1146 142.991 15.992 142.991 15.8295V15.7997C142.991 15.4848 142.891 15.2412 142.693 15.0689C142.497 14.8965 142.219 14.8104 141.857 14.8104C141.476 14.8104 141.173 14.8949 140.947 15.0639C140.722 15.2296 140.573 15.4384 140.5 15.6903L138.541 15.5312C138.641 15.0672 138.836 14.6662 139.128 14.3281C139.42 13.9867 139.796 13.7249 140.256 13.5426C140.72 13.357 141.257 13.2642 141.867 13.2642C142.291 13.2642 142.697 13.3139 143.085 13.4134C143.476 13.5128 143.823 13.6669 144.124 13.8757C144.429 14.0845 144.67 14.353 144.845 14.6811C145.021 15.0059 145.109 15.3954 145.109 15.8494V21H143.1V19.9411H143.041C142.918 20.1797 142.754 20.3902 142.548 20.5724C142.343 20.7514 142.096 20.8923 141.808 20.995C141.519 21.0945 141.186 21.1442 140.808 21.1442ZM141.415 19.6825C141.726 19.6825 142.001 19.6212 142.24 19.4986C142.479 19.3726 142.666 19.2036 142.802 18.9915C142.938 18.7794 143.006 18.5391 143.006 18.2706V17.4602C142.939 17.5033 142.848 17.5431 142.732 17.5795C142.62 17.6127 142.492 17.6442 142.349 17.674C142.207 17.7005 142.064 17.7254 141.922 17.7486C141.779 17.7685 141.65 17.7867 141.534 17.8033C141.286 17.8397 141.068 17.8977 140.883 17.9773C140.697 18.0568 140.553 18.1645 140.45 18.3004C140.348 18.433 140.296 18.5987 140.296 18.7976C140.296 19.0859 140.401 19.3063 140.609 19.4588C140.822 19.608 141.09 19.6825 141.415 19.6825ZM150.97 10.8182V21H148.852V10.8182H150.97ZM156.884 10.8182V21H154.766V10.8182H156.884ZM162.858 21.1442C162.371 21.1442 161.937 21.0597 161.556 20.8906C161.175 20.7183 160.873 20.4647 160.651 20.13C160.432 19.7919 160.323 19.371 160.323 18.8672C160.323 18.4429 160.401 18.0866 160.556 17.7983C160.712 17.5099 160.924 17.2779 161.193 17.1023C161.461 16.9266 161.766 16.794 162.108 16.7045C162.452 16.6151 162.814 16.5521 163.191 16.5156C163.636 16.4692 163.993 16.4261 164.265 16.3864C164.537 16.3433 164.734 16.2803 164.857 16.1974C164.979 16.1146 165.041 15.992 165.041 15.8295V15.7997C165.041 15.4848 164.941 15.2412 164.743 15.0689C164.547 14.8965 164.269 14.8104 163.907 14.8104C163.526 14.8104 163.223 14.8949 162.997 15.0639C162.772 15.2296 162.623 15.4384 162.55 15.6903L160.591 15.5312C160.691 15.0672 160.886 14.6662 161.178 14.3281C161.47 13.9867 161.846 13.7249 162.306 13.5426C162.77 13.357 163.307 13.2642 163.917 13.2642C164.341 13.2642 164.747 13.3139 165.135 13.4134C165.526 13.5128 165.873 13.6669 166.174 13.8757C166.479 14.0845 166.72 14.353 166.895 14.6811C167.071 15.0059 167.159 15.3954 167.159 15.8494V21H165.15V19.9411H165.091C164.968 20.1797 164.804 20.3902 164.598 20.5724C164.393 20.7514 164.146 20.8923 163.858 20.995C163.569 21.0945 163.236 21.1442 162.858 21.1442ZM163.465 19.6825C163.776 19.6825 164.051 19.6212 164.29 19.4986C164.529 19.3726 164.716 19.2036 164.852 18.9915C164.988 18.7794 165.056 18.5391 165.056 18.2706V17.4602C164.989 17.5033 164.898 17.5431 164.782 17.5795C164.67 17.6127 164.542 17.6442 164.399 17.674C164.257 17.7005 164.114 17.7254 163.972 17.7486C163.829 17.7685 163.7 17.7867 163.584 17.8033C163.336 17.8397 163.118 17.8977 162.933 17.9773C162.747 18.0568 162.603 18.1645 162.5 18.3004C162.398 18.433 162.346 18.5987 162.346 18.7976C162.346 19.0859 162.451 19.3063 162.659 19.4588C162.872 19.608 163.14 19.6825 163.465 19.6825ZM173.02 16.5852V21H170.902V10.8182H172.96V14.7109H173.05C173.222 14.2602 173.5 13.9072 173.885 13.652C174.269 13.3935 174.751 13.2642 175.331 13.2642C175.862 13.2642 176.324 13.3802 176.719 13.6122C177.116 13.8409 177.425 14.1707 177.643 14.6016C177.865 15.0291 177.975 15.5412 177.971 16.1378V21H175.854V16.5156C175.857 16.045 175.738 15.6787 175.496 15.4169C175.257 15.1551 174.922 15.0241 174.491 15.0241C174.203 15.0241 173.948 15.0855 173.726 15.2081C173.507 15.3307 173.335 15.5097 173.209 15.745C173.086 15.977 173.023 16.2571 173.02 16.5852Z" fill="white"/>
<path d="M53.017 34.3636C53.017 35.1307 52.8786 35.7936 52.6016 36.3523C52.3246 36.911 51.9446 37.3419 51.4616 37.6449C50.9787 37.9479 50.4271 38.0994 49.8068 38.0994C49.1866 38.0994 48.6349 37.9479 48.152 37.6449C47.669 37.3419 47.2891 36.911 47.0121 36.3523C46.7351 35.7936 46.5966 35.1307 46.5966 34.3636C46.5966 33.5966 46.7351 32.9337 47.0121 32.375C47.2891 31.8163 47.669 31.3854 48.152 31.0824C48.6349 30.7794 49.1866 30.6278 49.8068 30.6278C50.4271 30.6278 50.9787 30.7794 51.4616 31.0824C51.9446 31.3854 52.3246 31.8163 52.6016 32.375C52.8786 32.9337 53.017 33.5966 53.017 34.3636ZM52.1648 34.3636C52.1648 33.7339 52.0594 33.2024 51.8487 32.7692C51.6404 32.3359 51.3575 32.008 51 31.7855C50.6449 31.563 50.2472 31.4517 49.8068 31.4517C49.3665 31.4517 48.9676 31.563 48.6101 31.7855C48.255 32.008 47.9721 32.3359 47.7614 32.7692C47.553 33.2024 47.4489 33.7339 47.4489 34.3636C47.4489 34.9934 47.553 35.5249 47.7614 35.9581C47.9721 36.3913 48.255 36.7192 48.6101 36.9418C48.9676 37.1643 49.3665 37.2756 49.8068 37.2756C50.2472 37.2756 50.6449 37.1643 51 36.9418C51.3575 36.7192 51.6404 36.3913 51.8487 35.9581C52.0594 35.5249 52.1648 34.9934 52.1648 34.3636ZM56.7223 34.7188V38H55.8842V32.5455H56.6939V33.3977H56.7649C56.8928 33.1207 57.0869 32.8982 57.3473 32.7301C57.6077 32.5597 57.9439 32.4744 58.3558 32.4744C58.7251 32.4744 59.0483 32.5502 59.3253 32.7017C59.6023 32.8509 59.8177 33.0781 59.9716 33.3835C60.1255 33.6866 60.2024 34.0701 60.2024 34.5341V38H59.3643V34.5909C59.3643 34.1624 59.2531 33.8286 59.0305 33.5895C58.808 33.348 58.5026 33.2273 58.1143 33.2273C57.8468 33.2273 57.6077 33.2853 57.397 33.4013C57.1887 33.5173 57.0241 33.6866 56.9034 33.9091C56.7827 34.1316 56.7223 34.4015 56.7223 34.7188ZM64.0719 30.7273V38H63.2338V30.7273H64.0719ZM67.1069 38V32.5455H67.945V38H67.1069ZM67.533 31.6364C67.3697 31.6364 67.2288 31.5807 67.1104 31.4695C66.9944 31.3582 66.9364 31.2244 66.9364 31.0682C66.9364 30.9119 66.9944 30.7782 67.1104 30.6669C67.2288 30.5556 67.3697 30.5 67.533 30.5C67.6964 30.5 67.8361 30.5556 67.9521 30.6669C68.0704 30.7782 68.1296 30.9119 68.1296 31.0682C68.1296 31.2244 68.0704 31.3582 67.9521 31.4695C67.8361 31.5807 67.6964 31.6364 67.533 31.6364ZM71.818 34.7188V38H70.9799V32.5455H71.7896V33.3977H71.8606C71.9885 33.1207 72.1826 32.8982 72.443 32.7301C72.7034 32.5597 73.0396 32.4744 73.4515 32.4744C73.8208 32.4744 74.144 32.5502 74.421 32.7017C74.698 32.8509 74.9134 33.0781 75.0673 33.3835C75.2212 33.6866 75.2981 34.0701 75.2981 34.5341V38H74.46V34.5909C74.46 34.1624 74.3488 33.8286 74.1262 33.5895C73.9037 33.348 73.5983 33.2273 73.21 33.2273C72.9425 33.2273 72.7034 33.2853 72.4927 33.4013C72.2844 33.5173 72.1199 33.6866 71.9991 33.9091C71.8784 34.1316 71.818 34.4015 71.818 34.7188ZM80.6165 38.1136C80.0909 38.1136 79.6375 37.9976 79.2564 37.7656C78.8776 37.5312 78.5852 37.2045 78.3793 36.7855C78.1757 36.3641 78.0739 35.8741 78.0739 35.3153C78.0739 34.7566 78.1757 34.2642 78.3793 33.8381C78.5852 33.4096 78.8717 33.0758 79.2386 32.8366C79.608 32.5952 80.0388 32.4744 80.5312 32.4744C80.8153 32.4744 81.0959 32.5218 81.3729 32.6165C81.6499 32.7112 81.902 32.8651 82.1293 33.0781C82.3565 33.2888 82.5376 33.5682 82.6726 33.9162C82.8075 34.2642 82.875 34.6927 82.875 35.2017V35.5568H78.6705V34.8324H82.0227C82.0227 34.5246 81.9612 34.25 81.8381 34.0085C81.7173 33.767 81.5445 33.5765 81.3196 33.4368C81.0971 33.2971 80.8343 33.2273 80.5312 33.2273C80.1974 33.2273 79.9086 33.3101 79.6648 33.4759C79.4233 33.6392 79.2375 33.8523 79.1072 34.1151C78.977 34.3778 78.9119 34.6596 78.9119 34.9602V35.4432C78.9119 35.8551 78.983 36.2043 79.125 36.4908C79.2694 36.7749 79.4695 36.9915 79.7251 37.1406C79.9808 37.2874 80.2779 37.3608 80.6165 37.3608C80.8366 37.3608 81.0355 37.33 81.2131 37.2685C81.393 37.2045 81.5481 37.1098 81.6783 36.9844C81.8085 36.8565 81.9091 36.6979 81.9801 36.5085L82.7898 36.7358C82.7045 37.0104 82.5613 37.2519 82.3601 37.4602C82.1589 37.6662 81.9103 37.8272 81.6143 37.9432C81.3184 38.0568 80.9858 38.1136 80.6165 38.1136ZM90.076 38V30.7273H92.5334C93.1039 30.7273 93.5703 30.8303 93.9325 31.0362C94.2971 31.2398 94.567 31.5156 94.7422 31.8636C94.9174 32.2116 95.005 32.5999 95.005 33.0284C95.005 33.4569 94.9174 33.8464 94.7422 34.1967C94.5694 34.5471 94.3018 34.8265 93.9396 35.0348C93.5774 35.2408 93.1134 35.3438 92.5476 35.3438H90.7862V34.5625H92.5192C92.9098 34.5625 93.2235 34.495 93.4602 34.3601C93.697 34.2251 93.8686 34.0429 93.9751 33.8132C94.084 33.5812 94.1385 33.3196 94.1385 33.0284C94.1385 32.7372 94.084 32.4768 93.9751 32.2472C93.8686 32.0175 93.6958 31.8376 93.4567 31.7074C93.2176 31.5748 92.9003 31.5085 92.505 31.5085H90.9567V38H90.076ZM97.81 38V32.5455H98.6197V33.3693H98.6765C98.7759 33.0994 98.9558 32.8804 99.2163 32.7124C99.4767 32.5443 99.7702 32.4602 100.097 32.4602C100.158 32.4602 100.235 32.4614 100.328 32.4638C100.42 32.4661 100.49 32.4697 100.537 32.4744V33.3267C100.509 33.3196 100.444 33.3089 100.342 33.2947C100.243 33.2782 100.137 33.2699 100.026 33.2699C99.7608 33.2699 99.524 33.3255 99.3157 33.4368C99.1097 33.5457 98.9464 33.6972 98.8256 33.8913C98.7073 34.0831 98.6481 34.3021 98.6481 34.5483V38H97.81ZM105.081 38.1136C104.588 38.1136 104.156 37.9964 103.784 37.7621C103.415 37.5277 103.126 37.1998 102.918 36.7784C102.712 36.357 102.609 35.8646 102.609 35.3011C102.609 34.733 102.712 34.237 102.918 33.8132C103.126 33.3894 103.415 33.0604 103.784 32.826C104.156 32.5916 104.588 32.4744 105.081 32.4744C105.573 32.4744 106.004 32.5916 106.373 32.826C106.745 33.0604 107.034 33.3894 107.24 33.8132C107.448 34.237 107.552 34.733 107.552 35.3011C107.552 35.8646 107.448 36.357 107.24 36.7784C107.034 37.1998 106.745 37.5277 106.373 37.7621C106.004 37.9964 105.573 38.1136 105.081 38.1136ZM105.081 37.3608C105.455 37.3608 105.762 37.2649 106.004 37.0732C106.245 36.8814 106.424 36.6293 106.54 36.3168C106.656 36.0043 106.714 35.6657 106.714 35.3011C106.714 34.9366 106.656 34.5968 106.54 34.282C106.424 33.9671 106.245 33.7126 106.004 33.5185C105.762 33.3243 105.455 33.2273 105.081 33.2273C104.707 33.2273 104.399 33.3243 104.157 33.5185C103.916 33.7126 103.737 33.9671 103.621 34.282C103.505 34.5968 103.447 34.9366 103.447 35.3011C103.447 35.6657 103.505 36.0043 103.621 36.3168C103.737 36.6293 103.916 36.8814 104.157 37.0732C104.399 37.2649 104.707 37.3608 105.081 37.3608ZM110.331 40.0455V32.5455H111.141V33.4119H111.241C111.302 33.3172 111.387 33.1965 111.496 33.0497C111.608 32.9006 111.766 32.768 111.972 32.652C112.18 32.5336 112.462 32.4744 112.817 32.4744C113.277 32.4744 113.681 32.5893 114.032 32.8189C114.382 33.0485 114.656 33.3741 114.852 33.7955C115.049 34.2169 115.147 34.714 115.147 35.2869C115.147 35.8646 115.049 36.3653 114.852 36.7891C114.656 37.2105 114.383 37.5372 114.035 37.7692C113.687 37.9988 113.286 38.1136 112.831 38.1136C112.481 38.1136 112.201 38.0556 111.99 37.9396C111.779 37.8213 111.617 37.6875 111.503 37.5384C111.39 37.3868 111.302 37.2614 111.241 37.1619H111.17V40.0455H110.331ZM111.155 35.2727C111.155 35.6847 111.216 36.0481 111.336 36.3629C111.457 36.6754 111.634 36.9205 111.866 37.098C112.098 37.2732 112.382 37.3608 112.718 37.3608C113.068 37.3608 113.361 37.2685 113.595 37.0838C113.832 36.8968 114.009 36.6458 114.128 36.331C114.248 36.0137 114.309 35.661 114.309 35.2727C114.309 34.8892 114.25 34.5436 114.131 34.2358C114.015 33.9257 113.839 33.6806 113.602 33.5007C113.368 33.3184 113.073 33.2273 112.718 33.2273C112.377 33.2273 112.09 33.3137 111.858 33.4865C111.626 33.657 111.451 33.8961 111.333 34.2038C111.215 34.5092 111.155 34.8655 111.155 35.2727ZM120.212 38.1136C119.687 38.1136 119.233 37.9976 118.852 37.7656C118.473 37.5312 118.181 37.2045 117.975 36.7855C117.771 36.3641 117.67 35.8741 117.67 35.3153C117.67 34.7566 117.771 34.2642 117.975 33.8381C118.181 33.4096 118.467 33.0758 118.834 32.8366C119.204 32.5952 119.635 32.4744 120.127 32.4744C120.411 32.4744 120.692 32.5218 120.969 32.6165C121.246 32.7112 121.498 32.8651 121.725 33.0781C121.952 33.2888 122.133 33.5682 122.268 33.9162C122.403 34.2642 122.471 34.6927 122.471 35.2017V35.5568H118.266V34.8324H121.618C121.618 34.5246 121.557 34.25 121.434 34.0085C121.313 33.767 121.14 33.5765 120.915 33.4368C120.693 33.2971 120.43 33.2273 120.127 33.2273C119.793 33.2273 119.504 33.3101 119.26 33.4759C119.019 33.6392 118.833 33.8523 118.703 34.1151C118.573 34.3778 118.508 34.6596 118.508 34.9602V35.4432C118.508 35.8551 118.579 36.2043 118.721 36.4908C118.865 36.7749 119.065 36.9915 119.321 37.1406C119.577 37.2874 119.874 37.3608 120.212 37.3608C120.432 37.3608 120.631 37.33 120.809 37.2685C120.989 37.2045 121.144 37.1098 121.274 36.9844C121.404 36.8565 121.505 36.6979 121.576 36.5085L122.385 36.7358C122.3 37.0104 122.157 37.2519 121.956 37.4602C121.755 37.6662 121.506 37.8272 121.21 37.9432C120.914 38.0568 120.581 38.1136 120.212 38.1136ZM125.246 38V32.5455H126.055V33.3693H126.112C126.211 33.0994 126.391 32.8804 126.652 32.7124C126.912 32.5443 127.206 32.4602 127.532 32.4602C127.594 32.4602 127.671 32.4614 127.763 32.4638C127.856 32.4661 127.925 32.4697 127.973 32.4744V33.3267C127.944 33.3196 127.879 33.3089 127.778 33.2947C127.678 33.2782 127.573 33.2699 127.461 33.2699C127.196 33.2699 126.96 33.3255 126.751 33.4368C126.545 33.5457 126.382 33.6972 126.261 33.8913C126.143 34.0831 126.084 34.3021 126.084 34.5483V38H125.246ZM133.18 32.5455V33.2557H130.354V32.5455H133.18ZM131.177 31.2386H132.015V36.4375C132.015 36.6742 132.05 36.8518 132.118 36.9702C132.189 37.0862 132.279 37.1643 132.388 37.2045C132.5 37.2424 132.617 37.2614 132.74 37.2614C132.832 37.2614 132.908 37.2566 132.967 37.2472C133.026 37.2353 133.074 37.2259 133.109 37.2188L133.28 37.9716C133.223 37.9929 133.144 38.0142 133.042 38.0355C132.94 38.0592 132.811 38.071 132.655 38.071C132.418 38.071 132.186 38.0201 131.959 37.9183C131.734 37.8165 131.547 37.6615 131.398 37.4531C131.251 37.2448 131.177 36.982 131.177 36.6648V31.2386ZM135.941 38V32.5455H136.779V38H135.941ZM136.367 31.6364C136.204 31.6364 136.063 31.5807 135.944 31.4695C135.828 31.3582 135.77 31.2244 135.77 31.0682C135.77 30.9119 135.828 30.7782 135.944 30.6669C136.063 30.5556 136.204 30.5 136.367 30.5C136.53 30.5 136.67 30.5556 136.786 30.6669C136.904 30.7782 136.964 30.9119 136.964 31.0682C136.964 31.2244 136.904 31.3582 136.786 31.4695C136.67 31.5807 136.53 31.6364 136.367 31.6364ZM142.101 38.1136C141.575 38.1136 141.122 37.9976 140.741 37.7656C140.362 37.5312 140.07 37.2045 139.864 36.7855C139.66 36.3641 139.558 35.8741 139.558 35.3153C139.558 34.7566 139.66 34.2642 139.864 33.8381C140.07 33.4096 140.356 33.0758 140.723 32.8366C141.092 32.5952 141.523 32.4744 142.016 32.4744C142.3 32.4744 142.58 32.5218 142.857 32.6165C143.134 32.7112 143.386 32.8651 143.614 33.0781C143.841 33.2888 144.022 33.5682 144.157 33.9162C144.292 34.2642 144.359 34.6927 144.359 35.2017V35.5568H140.155V34.8324H143.507C143.507 34.5246 143.446 34.25 143.322 34.0085C143.202 33.767 143.029 33.5765 142.804 33.4368C142.581 33.2971 142.319 33.2273 142.016 33.2273C141.682 33.2273 141.393 33.3101 141.149 33.4759C140.908 33.6392 140.722 33.8523 140.592 34.1151C140.461 34.3778 140.396 34.6596 140.396 34.9602V35.4432C140.396 35.8551 140.467 36.2043 140.609 36.4908C140.754 36.7749 140.954 36.9915 141.21 37.1406C141.465 37.2874 141.762 37.3608 142.101 37.3608C142.321 37.3608 142.52 37.33 142.697 37.2685C142.877 37.2045 143.032 37.1098 143.163 36.9844C143.293 36.8565 143.393 36.6979 143.464 36.5085L144.274 36.7358C144.189 37.0104 144.046 37.2519 143.844 37.4602C143.643 37.6662 143.395 37.8272 143.099 37.9432C142.803 38.0568 142.47 38.1136 142.101 38.1136ZM150.998 33.767L150.245 33.9801C150.198 33.8546 150.128 33.7327 150.036 33.6143C149.946 33.4936 149.822 33.3942 149.666 33.3161C149.51 33.2379 149.31 33.1989 149.066 33.1989C148.732 33.1989 148.454 33.2758 148.232 33.4297C148.011 33.5812 147.901 33.7741 147.901 34.0085C147.901 34.2169 147.977 34.3814 148.129 34.5021C148.28 34.6229 148.517 34.7235 148.839 34.804L149.648 35.0028C150.136 35.1212 150.5 35.3023 150.739 35.5462C150.978 35.7876 151.097 36.099 151.097 36.4801C151.097 36.7926 151.007 37.072 150.827 37.3182C150.65 37.5644 150.401 37.7585 150.082 37.9006C149.762 38.0426 149.39 38.1136 148.967 38.1136C148.41 38.1136 147.95 37.9929 147.585 37.7514C147.221 37.5099 146.99 37.1572 146.893 36.6932L147.688 36.4943C147.764 36.7879 147.907 37.008 148.118 37.1548C148.331 37.3016 148.609 37.375 148.952 37.375C149.343 37.375 149.653 37.2921 149.883 37.1264C150.115 36.9583 150.231 36.7571 150.231 36.5227C150.231 36.3333 150.165 36.1747 150.032 36.0469C149.899 35.9167 149.696 35.8196 149.421 35.7557L148.512 35.5426C148.013 35.4242 147.646 35.2408 147.411 34.9922C147.179 34.7412 147.063 34.4276 147.063 34.0511C147.063 33.7434 147.15 33.4711 147.322 33.2344C147.498 32.9976 147.736 32.8118 148.036 32.6768C148.339 32.5419 148.683 32.4744 149.066 32.4744C149.606 32.4744 150.03 32.5928 150.337 32.8295C150.647 33.0663 150.868 33.3788 150.998 33.767Z" fill="white"/>
</svg>
